# xmcd
#
# Track frame offsets:
#	150
#	23422
#	42685
#	67402
#	90557
#	113800
#
# Disc length: 1772 seconds
#
# Revision: 0
# Processed by: cddbd v1.5.1PL0 Copyright (c) Steve Scherf et al.
# Submitted via: dBpowerAMP V4.0
#
DISCID=4d06ea06
DTITLE=Suzuki Ami - negaigoto(CD+DVD)
DYEAR=2005
DGENRE=Ballad
TTITLE0=01.negaigoto
TTITLE1=02.Times
TTITLE2=03.negaigoto-Electronic Remix-
TTITLE3=04.nggaigoto-Dub's The wish was fullfilled Remix-
TTITLE4=05.negaigoto(Instrumental)
TTITLE5=06.Times(Instrumental)
EXTD=
EXTT0=
EXTT1=
EXTT2=
EXTT3=
EXTT4=
EXTT5=
PLAYORDER=
